<?xml version="1.0" standalone="no"?>
<!DOCTYPE svg PUBLIC "-//W3C//DTD SVG 20010904//EN"
 "http://www.w3.org/TR/2001/REC-SVG-20010904/DTD/svg10.dtd">
<svg version="1.0" xmlns="http://www.w3.org/2000/svg"
 width="1320.000000pt" height="497.000000pt" viewBox="0 0 1320.000000 497.000000"
 preserveAspectRatio="xMidYMid meet">

<g transform="translate(0.000000,497.000000) scale(0.100000,-0.100000)"
fill="#5f6FFF" stroke="none">
<path d="M2410 4594 c-555 -403 -1091 -670 -1580 -789 -114 -27 -125 -33 -147
-84 -77 -180 -107 -326 -108 -523 l0 -158 -121 0 c-109 0 -123 -2 -139 -20
-15 -16 -17 -26 -9 -48 l9 -27 140 -5 139 -5 23 -85 c30 -116 65 -203 139
-350 191 -377 529 -761 1059 -1204 264 -221 692 -546 719 -546 6 0 51 29 100
65 49 36 91 64 92 62 1 -1 23 -31 49 -66 164 -223 389 -367 650 -416 131 -25
338 -16 460 19 363 106 635 388 728 756 30 120 30 348 0 470 -58 231 -197 444
-380 582 -29 22 -53 44 -53 48 0 5 27 53 59 108 79 132 111 198 152 307 18 50
38 93 44 97 5 4 105 8 221 8 222 0 234 2 234 46 0 48 -29 54 -238 54 l-194 0
5 23 c34 136 38 376 8 523 -28 138 -94 322 -120 339 -6 3 -57 17 -114 31 -484
117 -984 362 -1518 745 -92 65 -175 119 -185 119 -11 0 -66 -34 -124 -76z
m317 -170 c535 -375 968 -581 1519 -723 40 -11 43 -14 68 -81 62 -169 71 -220
70 -425 -1 -128 -6 -208 -15 -245 l-14 -55 -164 -3 -163 -3 9 68 c22 180 -1
363 -66 521 -31 76 -20 70 -216 122 -323 86 -716 284 -1080 544 -66 47 -129
86 -141 86 -12 0 -57 -26 -100 -57 -415 -299 -800 -491 -1174 -587 l-125 -32
-32 -64 c-44 -90 -74 -216 -80 -342 l-6 -108 -167 0 c-197 0 -180 -14 -180
146 0 118 20 246 56 359 46 145 45 144 154 171 488 123 1001 377 1539 762 99
71 117 80 132 70 10 -7 89 -63 176 -124z m-59 -397 c236 -164 516 -320 747
-417 112 -46 314 -112 396 -129 l57 -12 21 -57 c49 -137 66 -266 52 -397 -6
-51 -14 -100 -17 -109 -5 -14 -50 -16 -425 -16 l-418 0 -107 143 c-59 78 -118
154 -132 170 -30 32 -65 35 -84 8 -8 -11 -79 -189 -159 -395 -79 -207 -146
-376 -149 -376 -3 0 -78 133 -168 294 -89 162 -170 297 -178 300 -9 3 -234 6
-500 6 l-484 0 0 75 c0 87 21 201 54 289 l23 61 137 37 c339 93 733 289 1086
541 58 41 110 74 115 72 6 -1 65 -41 133 -88z m257 -1097 l106 -140 423 0
c232 0 425 -3 429 -6 9 -10 -52 -144 -115 -250 l-60 -102 -142 -5 c-114 -4
-158 -10 -230 -31 -187 -56 -330 -142 -458 -274 -173 -179 -264 -376 -290
-630 -10 -101 -14 -115 -34 -129 -22 -14 -29 -10 -166 93 -612 460 -974 831
-1148 1179 -55 111 -114 280 -103 298 2 4 208 7 457 7 351 0 456 -3 464 -12 5
-7 87 -152 182 -323 95 -170 177 -316 182 -322 6 -7 24 -13 40 -13 36 0 28
-18 209 452 74 192 137 348 141 348 4 0 55 -63 113 -140z m-1890 -17 c48 -228
186 -489 383 -723 111 -133 369 -383 547 -530 161 -134 505 -396 543 -413 17
-8 32 -8 53 0 34 13 34 12 44 -47 4 -25 22 -87 40 -137 l33 -93 -69 -50 c-38
-27 -72 -50 -75 -50 -17 0 -439 324 -624 479 -454 380 -782 730 -982 1047
-101 161 -201 389 -224 509 l-6 35 166 0 166 0 5 -27z m3285 -131 c0 -15 -50
-133 -92 -216 -39 -78 -136 -246 -142 -246 -2 0 -32 13 -67 29 -35 15 -94 36
-131 46 -38 10 -68 20 -68 22 0 2 23 43 50 92 42 74 95 186 123 264 6 15 23
17 167 17 88 0 160 -4 160 -8z m-462 -481 c420 -123 698 -503 679 -931 -11
-248 -107 -461 -284 -631 -169 -163 -358 -245 -590 -256 -191 -9 -332 22 -490
107 -238 128 -399 338 -465 607 -26 110 -29 292 -4 400 79 357 359 638 712
717 102 23 344 16 442 -13z"/>
<path d="M4009 1703 c-18 -16 -150 -133 -293 -261 -142 -128 -262 -231 -266
-230 -4 2 -60 64 -125 138 -65 74 -123 138 -129 142 -30 20 -76 -5 -76 -41 0
-20 278 -344 310 -361 12 -6 26 -7 36 -2 8 5 154 134 325 287 320 288 332 301
293 339 -22 22 -38 20 -75 -11z"/>
<path d="M11670 2112 c0 -803 0 -797 62 -868 54 -62 100 -79 208 -79 76 0 104
4 142 22 l47 22 -21 61 c-20 59 -21 61 -47 53 -14 -4 -56 -8 -93 -8 -60 0 -71
3 -94 26 -15 16 -30 45 -35 70 -4 24 -8 356 -9 737 l0 692 -80 0 -80 0 0 -728z"/>
<path d="M12270 2112 c0 -803 0 -797 62 -868 54 -62 100 -79 208 -79 79 0 103
4 142 23 l47 23 -22 60 c-20 56 -23 60 -47 54 -14 -3 -53 -9 -86 -12 -57 -5
-64 -3 -93 23 -20 18 -36 45 -41 69 -5 22 -10 348 -10 738 l0 697 -80 0 -80 0
0 -728z"/>
<path d="M10662 2723 c-11 -27 -158 -381 -327 -788 -169 -407 -309 -744 -312
-748 -3 -4 37 -6 87 -5 l92 3 85 213 85 212 378 0 377 0 83 -215 83 -215 89 0
88 0 -13 33 c-8 17 -150 375 -318 795 l-303 762 -77 0 -77 0 -20 -47z m258
-578 c81 -209 146 -383 143 -387 -2 -5 -143 -8 -313 -8 -170 0 -311 3 -313 8
-2 4 69 184 157 401 111 273 163 390 169 380 5 -8 75 -185 157 -394z"/>
<path d="M6175 2310 c-226 -30 -400 -201 -449 -442 -43 -207 5 -429 118 -554
143 -159 433 -202 644 -97 53 27 162 131 162 155 0 7 -25 32 -55 55 l-55 41
-58 -57 c-72 -73 -133 -96 -247 -95 -115 0 -176 23 -246 94 -46 46 -61 69 -77
121 -86 280 31 570 252 623 51 12 159 8 205 -9 56 -19 106 -57 134 -101 12
-19 27 -32 34 -29 26 9 113 80 113 92 0 6 -25 39 -56 72 -67 73 -147 114 -251
130 -79 12 -81 12 -168 1z"/>
<path d="M8603 2310 c-60 -12 -119 -45 -174 -97 -58 -54 -91 -109 -130 -212
l-28 -76 2 185 2 185 -77 3 -78 3 0 -561 0 -560 78 0 79 0 7 168 c12 298 42
470 106 607 64 140 156 201 289 193 79 -4 75 -9 87 94 3 30 3 58 -2 61 -18 11
-120 15 -161 7z"/>
<path d="M9370 2309 c-211 -31 -374 -184 -430 -404 -40 -157 -20 -374 46 -495
62 -113 192 -206 331 -235 138 -30 278 -16 391 37 63 30 182 133 182 159 0 7
-21 32 -47 55 l-48 41 -43 -44 c-24 -25 -72 -58 -110 -76 -61 -29 -75 -32
-167 -32 -120 0 -189 20 -261 74 -64 48 -113 141 -121 229 l-6 62 401 0 401 0
7 56 c8 69 -3 199 -23 267 -45 153 -150 260 -288 295 -62 16 -154 21 -215 11z
m224 -159 c96 -49 143 -135 148 -270 l3 -65 -327 -3 c-375 -3 -343 -13 -309
97 37 119 117 212 215 251 74 29 202 24 270 -10z"/>
<path d="M6856 2292 c-3 -6 -6 -189 -6 -408 0 -326 2 -410 15 -457 30 -115 87
-192 173 -234 51 -25 68 -28 157 -28 94 0 105 2 169 34 97 48 165 120 220 234
l45 92 -6 -172 -6 -173 82 0 81 0 -2 558 -3 557 -75 0 -75 0 -6 -170 c-11
-276 -47 -472 -114 -611 -84 -173 -251 -247 -389 -171 -30 16 -48 37 -71 81
l-30 60 -1 405 -1 406 -76 3 c-41 2 -78 -1 -81 -6z"/>
</g>
</svg>
